<?xml version="1.0" encoding="UTF-8"?>
<svg xmlns="http://www.w3.org/2000/svg" xmlns:xlink="http://www.w3.org/1999/xlink" version="1.2" id="Layer_1" viewBox="0 0 16 16" style="enable-background:new 0 0 16 16;" xml:space="preserve">
<style>
	.st0{fill:#EAEAEC;}
	.st1{fill:#F1624A;}
	.st2{fill:#A2A2A2;}
	.st3{fill:#2D2D2D;}
	.st4{fill:#747474;}
	.st5{fill:#1A1A1A;}
	.st6{fill:#707070;}
	.st7{fill:#454545;}
	.st8{fill:#C2C2C2;}
	.st9{fill:#545454;}
	.st10{fill:#212121;}
	.st11{fill:#2F2F2F;}
	.st12{fill:#838383;}
	.st13{fill:#878787;}
	.st14{fill:#242424;}
	.st15{fill:#6F6F6F;}
	.st16{fill:#4D4D4D;}
	.st17{fill:#BBBBBB;}
	.st18{fill:#797979;}
	.st19{fill:#B8B8B8;}
	.st20{fill:#909090;}
	.st21{fill:#4B4B4B;}
	.st22{fill:#4F4F4F;}
	.st23{fill:#383C48;}
	.st24{fill:#F16048;}
	.st25{fill:url(#SVGID_3_);}
	.st26{fill:#010101;}
	.st27{fill:#3A3E4A;}
	.st28{fill:#3E3E3E;}
	.st29{fill:#A1A1A1;}
	.st30{fill:#3A3A3A;}
	.st31{fill:#FFFFFF;}
	.st32{fill:#959595;}
	.st33{fill:#141414;}
	.st34{fill:#FEFEFE;}
	.st35{fill:#828282;}
	.st36{fill:#444444;}
	.st37{fill:#808080;}
	.st38{fill:#F7F7F7;}
	.st39{fill:#F9F9F9;}
	.st40{fill:#939393;}
	.st41{fill:#B7B7B7;}
	.st42{fill:#FDFDFD;}
	.st43{fill:#FAFAFA;}
	.st44{fill:#FBFBFB;}
	.st45{fill:#F2F2F2;}
	.st46{fill:#F5F5F5;}
	.st47{fill:#F3F3F3;}
	.st48{fill:#F4F4F4;}
	.st49{fill:#F6F6F6;}
	.st50{fill:#E3E3E3;}
	.st51{fill:#D7D7D7;}
	.st52{fill:#161616;}
	.st53{fill:#848484;}
	.st54{fill:#FCFCFC;}
	.st55{fill:#5C5C5C;}
	.st56{fill:#EFEFEF;}
	.st57{fill:#2E2E2E;}
	.st58{fill:#1E1E1E;}
	.st59{fill:#353535;}
	.st60{fill:#262626;}
	.st61{fill:#515151;}
	.st62{fill:#888888;}
	.st63{fill:#080808;}
	.st64{fill:#090909;}
	.st65{fill:#616161;}
	.st66{fill:#1F1F1F;}
	.st67{fill:#131313;}
	.st68{fill:#111111;}
	.st69{fill:#171717;}
	.st70{fill:#424242;}
	.st71{opacity:0.39;fill:#A2A2A2;}
	.st72{opacity:0.39;fill:#141414;}
	.st73{fill:#282828;}
	.st74{fill:#5A5A5A;}
	.st75{fill:#4C4C4C;}
	.st76{fill:#313131;}
	.st77{fill:#494949;}
	.st78{fill:#5D5D5D;}
	.st79{fill:#585858;}
	.st80{fill:#333333;}
	.st81{fill:#646464;}
	.st82{fill:#343434;}
	.st83{fill:#3F3F3F;}
	.st84{fill:#363636;}
	.st85{fill:#717171;}
	.st86{fill:#656565;}
	.st87{fill:#232323;}
	.st88{fill:#404040;}
	.st89{fill:#525252;}
	.st90{fill:#2C2C2C;}
	.st91{fill:#292929;}
	.st92{fill:#4E4E4E;}
	.st93{fill:#3B3B3B;}
	.st94{fill:#464646;}
	.st95{fill:#484848;}
	.st96{fill:#474747;}
	.st97{fill:#EDEDED;}
	.st98{fill:none;stroke:#000000;stroke-miterlimit:10;}
	.st99{fill:url(#SVGID_4_);}
	.st100{fill:url(#SVGID_5_);}
	.st101{fill:#454547;}
	.st102{fill:url(#SVGID_6_);}
	.st103{fill:url(#SVGID_7_);}
	.st104{fill:url(#SVGID_8_);}
	.st105{fill:url(#SVGID_9_);}
	.st106{fill:url(#SVGID_10_);}
	.st107{fill:url(#SVGID_11_);}
	.st108{fill:#565656;}
	.st109{fill:#666666;}
	.st110{fill:#5B5B5B;}
	.st111{fill:#727272;}
	.st112{fill:#8C8C8C;}
	.st113{fill:url(#SVGID_12_);}
	.st114{fill:url(#SVGID_13_);}
	.st115{fill:url(#SVGID_14_);}
	.st116{fill:url(#SVGID_15_);}
	.st117{fill:url(#SVGID_16_);}
	.st118{fill:url(#SVGID_17_);}
	.st119{fill:#565759;}
	.st120{fill:url(#SVGID_18_);}
	.st121{fill:url(#SVGID_19_);}
	.st122{fill:url(#SVGID_20_);}
	.st123{fill:url(#SVGID_21_);}
	.st124{fill:url(#SVGID_22_);}
	.st125{fill:url(#SVGID_23_);}
	.st126{fill:url(#SVGID_24_);}
	.st127{fill:url(#SVGID_25_);}
	.st128{fill:#454547;stroke:#454547;stroke-width:9;stroke-miterlimit:10;}
	.st129{fill:url(#SVGID_26_);}
	.st130{fill:url(#SVGID_27_);}
	.st131{fill:url(#SVGID_28_);}
	.st132{fill:url(#SVGID_29_);}
	.st133{fill:url(#SVGID_30_);}
	.st134{fill:url(#SVGID_31_);}
	.st135{fill:url(#SVGID_32_);}
	.st136{fill:url(#SVGID_33_);}
</style>
<linearGradient id="SVGID_2_" gradientUnits="userSpaceOnUse" x1="16.2471" y1="1.1668" x2="8.8779" y2="13.9305">
	<stop offset="0" style="stop-color:#507EC0"></stop>
	<stop offset="0.2291" style="stop-color:#7868AE"></stop>
	<stop offset="0.4804" style="stop-color:#CA66A8"></stop>
	<stop offset="0.7542" style="stop-color:#F38476"></stop>
	<stop offset="1" style="stop-color:#FFF89F"></stop>
</linearGradient>
<path style="fill:url(#SVGID_2_);" d="M13.7,0L13.7,0c-1.1,0-2,0.9-2,2v2.6h0c0,0.2,0,0.5,0,0.7c0,0.6-0.3,1-0.8,1.3  c-0.5,0.3-1,0.2-1.4-0.1c-0.5-0.3-1-0.7-1.5-1C7.7,5.4,7.4,5.2,7.1,5.1c0,0.1,0,0.1,0,0.1c0,0,0,0.1,0,0.1C7.7,7,8.4,8.8,8.8,10.5  c0.2,0.8,0.6,1.7,0.9,2.5c0.4,0.9,0.9,1.7,1.6,2.3c0.4,0.4,0.9,0.6,1.5,0.7c1.5,0.1,2.8-1.1,2.8-2.6c0-1.1,0-2.2,0-3.2  c0-0.4,0-0.7,0-1.1c0,0,0-0.1,0-0.1V2C15.7,0.9,14.8,0,13.7,0z"></path>
<path d="M8.5,10C7.9,8.1,7.3,6.3,6.7,4.5c-0.3-0.8-0.6-1.6-1-2.3C5.4,1.5,5,0.9,4.3,0.5c-0.9-0.6-2-0.7-2.9-0.1  C0.7,0.9,0.3,1.7,0.3,2.7c0,1.2,0,2.4,0,3.6h0V14c0,1.1,0.9,2,2,2h0c1.1,0,2-0.9,2-2V8.5C4.4,8.2,4.6,8,5,7.8C5.4,7.7,5.8,7.7,6.1,8  c0.7,0.7,1.5,1.4,2.2,2c0.1,0.1,0.1,0.1,0.2,0.1c0,0,0,0,0.1,0C8.5,10.1,8.5,10,8.5,10z"></path>
<title>Title</title></svg>
