<?xml version="1.0"?><svg version="1.2" baseProfile="tiny-ps" viewBox="0 0 300 300" xmlns="http://www.w3.org/2000/svg" xmlns:xlink="http://www.w3.org/1999/xlink"><title>north</title><g><g fill="#fcfcfc" transform="matrix(.1 0 0 -.1 0 300)"><path d="M0 1500V0h3000v3000H0V1500z"/></g><g fill="#dadada" transform="matrix(.1 0 0 -.1 0 300)"><path d="M815 2734c-65-9-153-38-220-72l-70-36-76-76-76-75-41-85c-22-47-46-110-53-140l-14-55V795l23-75c13-41 40-104 59-140l36-65 71-70 71-70 64-34c35-18 91-43 125-54l61-21 685-3 684-4 81 16 80 16 83 40 84 41 72 71 73 72 36 65c19 36 46 99 59 140l23 75v1400l-14 55c-7 30-31 93-53 140l-41 85-76 75-76 76-64 33c-35 19-91 43-125 54l-61 21-690 2c-379 1-703 0-720-2zm289-438 44-26 30-37c16-21 46-71 66-111l37-73 114-340c63-186 112-339 109-339s-61 47-130 105l-125 105h-76l-24-26-24-26-5-311-5-312-17-30c-18-34-62-77-95-94l-22-11H869l-39 20-40 20-27 42-28 42-3 610-3 611 12 42 11 42 35 41c34 39 72 64 123 81l25 8 62-3 62-4 45-26zm1062-1 43-26 26-43 25-43V928l-27-49-26-49-46-30c-24-17-63-35-85-41l-41-11-47 5c-27 4-68 15-93 26l-45 20-50 51-49 51-35 62c-19 34-50 100-69 147-37 88-239 681-235 686 2 1 55-28 118-64l115-66 56-4 56-4 31 16 32 17 28 41 27 41 5 217 5 217 29 37 29 38 41 19 41 19h98l43-25z"/></g><g fill="#a7a8a8" transform="matrix(.1 0 0 -.1 0 300)"><path d="M785 2725c-127-24-219-68-311-149l-51-45-47-68-46-68-25-72-25-72-11-78-10-78 4-645 3-645 17-63c22-83 75-186 131-255l47-56 64-46c77-56 164-92 263-111l74-14h1276l74 14c87 17 142 38 222 84l60 35 61 63 62 62 41 80 42 79 17 69 18 69v1380l-18 65c-26 90-68 175-122 243l-46 58-67 49-67 50-65 26c-36 14-98 32-138 40l-74 14-641-1-642-1-70-13zm279-407 41-12 51-51 52-51 41-87 41-86 110-328c61-180 109-330 108-334-2-4-61 42-133 102l-130 109h-64l-28-24-28-24-5-314-5-313-27-45-26-45-44-25-43-24h-55l-55 1-30 15c-40 21-71 56-90 100l-15 37v1226l19 40 19 40 38 37 39 37 40 15 40 15h49c27 1 67-4 90-11zm1122-34 38-30 20-40 21-39 3-589 3-590-11-53-12-53-31-42-32-42-50-25-50-26h-150l-53 30-54 29-43 48-42 47-41 78c-22 43-54 112-70 153-40 103-224 651-220 655 2 2 57-26 123-63l120-67h120l27 20c14 11 35 34 45 50l18 30 5 210 6 210 16 30c19 36 52 68 93 90l30 16 67-3 67-4 37-30z"/></g><g fill="#5f5f5f" transform="matrix(.1 0 0 -.1 0 300)"><path d="M822 2730c-82-11-151-34-234-77l-68-35-62-63-63-62-38-64c-21-35-48-93-60-129l-22-65-3-707-3-707 16-68 16-67 36-76 36-75 81-81 81-81 75-36c41-20 104-45 140-54l65-18h1370l65 18c36 9 99 34 140 54l75 36 81 81 81 81 36 75 36 76 16 67 16 68-3 712-3 712-21 55c-32 83-57 129-107 195l-46 60-55 43c-63 49-154 93-241 119l-60 17-655 2-655 2-63-8zm264-419 41-19 37-38 38-39 49-100 48-100 103-310c56-170 106-320 109-332l7-23-75 63c-42 34-105 86-141 115l-65 52h-24c-35 0-61-16-78-50l-15-29V915l-19-40c-22-48-54-79-103-100l-37-15h-72l-37 16c-20 8-52 29-70 47l-33 31-14 50-15 50v1135l10 48 11 48 34 46 33 46 53 27 53 26h131l41-19zm1059 0 40-18 32-36 32-37 11-37 11-38-3-610-3-610-22-40c-28-52-68-89-123-114l-45-21h-111l-48 16-47 16-55 50-55 51-40 68c-22 37-60 117-83 176-54 136-230 663-224 669 3 2 59-26 124-63l119-68h114l27 21c15 11 37 33 48 48l21 27 5 218 5 218 27 39c40 57 104 91 173 93l30 1 40-19z"/></g><g fill="#303030" transform="matrix(.1 0 0 -.1 0 300)"><path d="M746 2714c-33-8-94-31-135-51l-76-36-80-81-80-81-33-67c-18-36-41-101-52-144l-20-77V835l15-70 15-70 41-85 42-85 76-75 76-75 75-37 75-36 70-17 70-16 705 3 705 3 75 29c41 16 103 46 137 68l62 39 55 60 55 59 41 83 40 82 15 70 15 70v1342l-20 79-20 79-32 65-32 65-81 81-80 80-75 37-75 36-65 15-65 16-690-1-690-1-59-14zm358-412 49-27 34-45c19-25 50-77 69-116l34-71 115-343c63-189 113-345 112-347-2-1-65 49-141 112l-138 115h-19c-10 0-29-5-43-11l-25-12-16-32-15-33V909l-19-37c-22-43-53-73-100-97l-34-17-58 4-57 4-41 27-41 27-22 43-23 42v1252l30 48c17 26 47 62 67 78l37 30 48 13 48 14 50-6 50-5 49-27zm1055 5 43-22 32-43 31-44 3-621 3-622-11-39-12-39-45-48-45-48-46-18-47-18-56 1-55 1-57 26-57 26-49 50-48 49-41 78c-22 44-55 115-72 159-37 93-231 667-227 671 2 2 59-28 127-66l124-69 38-6 39-7 47 24 47 23 23 45 22 44v380l21 43 21 44 32 23c40 30 81 44 132 45l41 1 42-23z"/></g><g fill="#010101" transform="matrix(.1 0 0 -.1 0 300)"><path d="m760 2714-65-14-85-41-85-42-71-72-72-72-41-84-41-84-16-82-15-81 4-679 3-678 17-55c9-30 33-89 53-130l37-74 72-72 71-71 85-42 84-41 70-15 70-15h1330l70 15 70 15 83 41 83 41 73 72 72 72 42 85 41 84 16 80 16 81-3 684-4 685-18 55c-10 30-34 87-54 125l-37 70-70 71-71 71-85 42-84 41-70 15-70 15-670-1-670-1-65-14zm303-390 46-16 46-40 46-40 48-100 49-99 112-335c62-184 110-338 107-341s-63 43-132 101c-69 59-136 111-148 117l-23 10-26-10-27-10-18-28-18-27-5-311-5-312-24-35c-13-19-40-46-59-59l-35-24-66-3-66-3-40 23-39 23-31 43-30 44v1263l22 40c12 22 37 55 55 73l35 33 49 19 49 19 41 1h40l47-16zm1085-9c47-20 79-50 103-98l19-37-2-633-3-634-30-49-31-49-52-31-52-32-45-7-46-6-53 11-54 11-53 37-53 37-39 50c-75 98-131 237-294 723-36 107-63 196-60 198 2 3 56-25 120-60 64-36 133-70 154-75l39-11 31 9c50 15 70 29 95 68l23 38 5 217 5 216 31 39 30 38 44 23 44 22h87l37-15z"/></g></g></svg>