<?xml version="1.0"?><svg version="1.2" baseProfile="tiny-ps" viewBox="0 0 300 300" xmlns="http://www.w3.org/2000/svg" xmlns:xlink="http://www.w3.org/1999/xlink"><title>Lavyas Aura</title><g><g fill="#f5d1ae" transform="matrix(.1 0 0 -.1 0 300)"><path d="M10 1495V0h2990v2990H10V1495z"/></g><g fill="#edbb8d" transform="matrix(.1 0 0 -.1 0 300)"><path d="M10 1495V0h2990v2990H10V1495zm1630 1240 75-14-49 4c-27 3-103 6-170 7l-121 1 45 7c73 11 140 10 220-5zm-282-12c-10-2-26-2-35 0l-18 5h70l-17-5zm442-17c30-7 71-21 90-30 40-19 28-16-90 18-91 26-91 34 0 12zm265-99c197-98 384-289 498-505 51-98 88-208 111-331l16-83-1-67-1-66-13 105c-30 233-79 376-190 544l-56 86-78 83-78 82-79 57c-44 31-115 75-159 97-44 23-69 39-55 35s52-20 85-37zm-318-96 42-19 15-31 16-30v-112l-20-42c-10-23-36-60-55-82-37-41-38-33-1 20 12 16 20 35 18 42-1 7 6 33 18 57 24 54 25 87 5 130l-15 32-29 17-29 17h-37c-20 0-46-5-58-12-68-35-129-149-187-345-23-80-36-96-25-33l7 40h-11c-13 0-41-40-41-61 0-9-7-22-15-29l-15-12v8c0 11 34 135 51 189 7 22 19 43 26 48l12 8-5 14-6 15 38 51 38 52 54 35c61 38 92 50 137 51l30 1 42-19zm-49-338c-9-10-13-23-11-30 2-6-1-14-6-18l-11-6v23l-15-12c-9-7-13-15-11-17 5-5-43-48-92-82l-34-23-11 11c-6 6-8 12-4 12 4 1 12 3 17 4 6 1 17 3 25 4l15 1 10 25c5 14 13 25 18 25s32 23 60 50c49 48 82 69 50 33zm205-157c18-7 45-27 60-43l28-30 14-54c8-30 15-62 15-72v-18l-9 5c-5 3-12 30-15 60l-7 54-35 40-34 41-35 11c-19 6-41 10-48 7l-12-4 41-21 41-21 22-47c12-25 20-49 17-52-3-2-9 4-12 14-4 10-18 34-32 53l-25 33-30 13-30 13-3 16-2 16h29c16 0 44-6 62-14zm103-262c-4-14-9-24-12-21-3 2-2 17 2 31 3 15 9 25 11 22 3-3 2-17-1-32zm-1049-62-27-28v-25c0-32 10-46 40-58l25-10h-26l-26-1-17 19-18 20 7 31 7 31 26 24c36 34 42 32 9-3zm329-6c148-73 249-117 288-126 23-6 59-14 81-20l40-10-64 5-63 5-97 41c-95 41-271 129-271 135 0 9 21 2 86-30zm1401-233-4-38v140l4-32c2-18 2-50 0-70zm-912-73c-26-11-65-12-65-2 0 4 19 8 43 8l42 2-20-8zm464-15 3-20-18 17c-11 9-30 18-44 21l-25 5 40-1 40-2 4-20zm-1881-65v-25l-8 30c-4 17-8 41-8 55v25l8-30c4-16 8-41 8-55zm792-51c17-45 29-84 26-86-4-4-86 202-86 215 1 15 31-50 60-129zm116 122c-3-4 8-43 24-85 17-43 30-82 30-89v-11l-9 10c-13 15-61 143-61 164v20h21l-5-9zm688-105c20-55 34-102 31-104-2-3-7 1-10 9-56 155-74 212-66 204 5-5 26-55 45-109zm723 82-5-13-1 19c-1 11 2 17 5 13 3-3 4-12 1-19zm-1900-10-5-13-1 19c-1 11 2 17 5 13 3-3 4-12 1-19zm870-94c-6-6-43 56-52 87l-6 24 32-53c17-29 29-55 26-58zm524 35c29-11 89-72 89-88 0-5-15 5-33 23-18 17-50 44-70 59l-37 28 1 17v17l11-22 10-22 29-12zm-1394-71-4-33v130l4-32c2-18 2-48 0-65zm-410 40-5-13-1 19c-1 11 2 17 5 13 3-3 4-12 1-19zm22-68v-15l-9 20c-5 11-9 27-9 35v15l9-20c5-11 9-27 9-35zm1481 34c0-2-7-4-15-4s-15 4-15 10v9l15-5c8-4 15-8 15-10zm240-81c0-27-18-12-22 19l-5 31 14-18c7-11 13-25 13-32zm-1213 5-5-13-1 19c-1 11 2 17 5 13 3-3 4-12 1-19zm1123-14v-16l-15 12c-8 7-15 14-15 16s7 4 15 4h15v-16zm130-4 15-10h-17c-9 0-20 5-23 10l-6 10h8c4 0 15-5 23-10zm-1337-7c-7-2-19-2-25 0l-13 5h50l-12-5zm1798-20c-12-20-14-14-5 12 4 9 9 14 11 11 3-2 0-13-6-23zM456 993c-4-4-46 92-45 104 0 4 11-16 25-46 13-30 23-56 20-58zm645-91c12-37 33-92 46-122l24-55-14 15c-13 13-72 154-92 219l-7 24 10-7c6-3 20-37 33-74zm184 68-6-9-14 6c-21 7-19 13 6 13h20l-6-10zm420-15 25-24v-46l-18 35-17 35-35 12-35 12h28l28 1 24-25zm281-90c24-60 47-118 50-129l6-21-14 20c-8 11-32 63-52 115-21 52-42 99-47 105-13 13-11 27 2 23l11-4 44-109zM544 852l50-77 99-97 99-98h13c8 0 18-6 22-13 7-13 126-97 136-97 3 0 44-18 91-40s90-40 96-40 21-5 33-12c12-6 29-13 37-14s65-9 125-19l110-17 104 4 105 5-25-10-24-9-90-1c-192-3-308 20-478 94l-89 38-83 56C715 611 576 759 505 896c-38 74-36 72 39-44zm723 31-4-28v100l4-22c2-13 2-35 0-50zm320 20-5-18v70l5-17c2-10 2-26 0-35zm-148-127-12-11 7 18c3 10 7 46 8 80l2 62 3-69 4-69-12-11zm261-1c0-5-9 1-20 15s-20 30-20 35c0 6 9-1 20-15s20-29 20-35zm-113-17-4-23v40l-1 40 5-17c2-10 2-28 0-40zm-266-34 24-13h-20c-11 0-30 7-43 17l-23 18 7 18 7 18 12-22c7-13 23-29 36-36zm407 15c19-30 8-34-12-4-9 14-13 25-9 25 5 0 14-9 21-21z"/></g><g fill="#cf8f54" transform="matrix(.1 0 0 -.1 0 300)"><path d="M10 1495V0h2990v2990H10V1495zm1720 1230c95-21 269-80 340-115 86-44 190-122 269-202 211-214 315-428 352-725l12-99-11-124-12-125-25-105-25-105-60-120c-33-66-72-133-85-150-14-16-43-55-65-85-59-80-117-137-222-217l-94-72-114-51c-63-29-122-56-131-60-8-4-51-19-95-31l-79-24h-360l-100 28-100 27-130 65-130 65-90 73-90 73-63 75c-149 176-229 340-279 570l-18 84v340l18 80c30 130 56 204 110 305 117 221 230 347 413 463l91 58 84 33c108 42 186 63 296 81l88 14 115-4 115-4 75-16zm-350-1c-47-5-213-43-275-61-63-20-190-82-264-130l-56-37-90-90-91-91-66-100-67-100-31-74c-41-99-77-236-91-346l-11-90 5-125 5-125 31-118c50-193 102-299 216-445l60-76 86-76c160-140 271-203 469-263l85-26 115-11 115-12 101 10 101 10 107 36 107 36 87 46c149 80 256 170 383 320 68 82 106 139 135 204 9 19 24 53 34 75 32 73 70 212 87 321l16 108-10 125-11 126-27 105-26 105-54 113-54 113-70 92-70 92-68 61c-160 143-317 224-533 276l-85 20-130 3c-71 2-146 1-165-1zm398-231 37-30 6-44 7-44-9-50-9-50-10-3c-6-2-10-9-10-16 0-30-175-196-247-234-12-7-27-18-35-24-7-7-40-35-72-62-32-28-87-83-122-124l-64-75v-34l138-63c75-35 157-69 181-77l44-13h125l33 14c19 8 54 31 78 52l44 38 23 50 24 51v52c0 64-10 91-50 136l-31 36-50 10-50 11-34-14-33-14-17-26c-9-14-19-43-22-64l-5-38 27-32 27-32h21l22-1-17-9-16-10-26 10c-30 11-51 43-60 88l-6 33 16 32c35 68 89 107 159 114l40 4 43-12 42-12 35-32 35-31 16-55 16-54-5-47-6-46-26-52-26-51-47-46-47-46-60-27c-33-15-81-30-106-34l-46-7-69 11-69 10-161 79-162 79-23-24c-12-13-45-35-73-49l-50-25h-47c-57 0-76 7-90 31l-9 19 14 34 14 35 43 28 42 28 56-1c31 0 69-3 84-7l28-8 34 74c19 41 61 161 93 268l60 194 28 55 28 55 48 51 48 51 42 21c64 31 69 32 126 28l52-3 38-30zM797 1376l-18-14 3-118 3-119 35-3 35-4 28 34 28 33-7-30c-4-16-9-33-11-37l-4-8H731l8 28c9 32 6 215-3 230l-6 11 32 4c18 2 38 4 43 5 6 1 2-5-8-12zm477-11-5-20 31-74c16-41 30-80 30-87 0-37 22-5 55 81l37 95-11 14-11 13h75l-25-27-25-27-39-109c-22-60-43-113-47-118l-9-10-26 60c-14 32-40 91-57 129-17 39-38 78-46 88l-15 18 47-3 46-3-5-20zm332 12-17-13 32-57c18-31 36-57 40-57s12 12 18 28c6 15 19 39 29 54l17 27-20 15-20 15 55 1h55l-31-19-31-19-12-29c-6-15-20-41-30-58-10-16-21-45-25-64l-6-33 31-29 31-29h-123l14 15 15 15-3 44-3 45-37 68c-20 37-44 73-53 80l-17 12 54 1h55l-18-13zm348-98 36-99 20-22c11-12 19-27 17-33l-4-10-35-3-35-3-1 30c0 16-6 39-12 51l-12 22-49-4-50-3 6 25c3 14 18 55 32 92l26 66 12-5 13-4 36-100zm286 90v-20l-22 15c-43 31-88 14-88-31v-24l32-17c18-9 47-31 65-48l33-32v-25c0-39-10-56-41-72l-28-15h-79l-10 13c-6 6-13 24-17 40l-7 27h9c6 0 15-11 21-24l10-23 27-7 26-7 27 13 27 13v39l-58 44-59 45-10 23-11 24 11 25 12 26 22 9c13 5 42 9 66 9l42 1v-21zm-1114-50c12-30 36-89 52-131l31-78h-19c-10 0-26-3-35-6l-17-7 2 19c4 38 0 54-20 74l-20 20h-57l-16-17c-8-10-18-30-22-45l-7-26 17-9 17-10-49-1h-48l18 13c10 7 27 29 38 49l19 35-6 14-5 14 15 6c9 4 16 13 16 20 0 8 11 40 25 72l25 57 12-4c6-2 21-29 34-59zm690-160-6-32 17-13 18-13-10-1c-5 0-16 4-24 9l-14 9 7 36c4 20 10 36 13 36s3-14-1-31zm-528-166c-10-2-26-2-35 0l-18 5h70l-17-5zm290-9 23-7-7-42-6-43 7-21 6-21h52l19 17 18 16v21c0 12-7 32-16 44l-15 22h-43l10 9 9 9 27-5c14-3 36-14 47-24l21-20v-57l-30-25-30-26 6-15c3-9 10-16 15-16s9-6 9-12c0-19 44-66 71-77l24-10h-20c-11-1-34 8-52 18l-31 19-31 46-32 46h-39V720h14c8 0 17-4 20-9l6-8-44 1-44 1 9 17 9 17v220l-10 6c-12 7-13 25-2 25 4 0 17-3 30-6zm-500-16c5-7 13-24 17-38 16-55 79-205 89-212l11-8h-85v31c0 17-5 39-10 50l-11 19h-75l-12-12-12-12v15c0 7 4 20 9 28l9 13 6-11 7-11h29c37 0 39 6 23 63l-14 47h-10c-5 0-9-6-9-14s-4-17-10-21l-9-6 10 33c6 18 12 39 15 46 2 6 7 12 12 12s14-6 20-12zm215 5-13-5V779l10-20c6-10 23-25 38-33l27-14 28 14 27 15 15 35 15 36-6 72-6 71-16 13-16 12h45l44-1-17-10-18-10V774l-29-34-29-35-48 1-47 1-29 32-28 31v173l-17 19-16 18 49-1c27 0 43-3 37-6zm703-122 50-123 15-9 14-9h-96l5 8c3 5 1 26-5 46l-10 37-22 9-22 9h13l12 1v18c0 9-8 40-19 67-10 28-16 56-14 63l5 13 12-4 11-4 51-122zm-90-32 19-8h-23l-22-1-20-32-20-33 4-17 4-18h-38l24 48c14 26 28 60 32 77l7 29 7-19c4-10 15-22 26-26zM998 707l17-5-16-1c-9 0-22 6-29 14l-12 14 9 13 8 13 3-22 3-22 17-4zm620 1785c-87-58-134-155-225-472-8-30-17-66-20-80l-5-25 9 11c11 16 118 102 183 149 30 22 81 64 114 95l58 55 29 60 29 60v76l-16 30-15 31-34 14c-45 19-74 18-107-4zm-659-801-29-29v-19c0-10 7-29 16-41l15-22h70l39 20 38 20 21 29c12 16 21 31 21 34s-18 12-40 21l-40 16h-82l-29-29zm906-397c-8-20-15-45-15-55v-19h70v16c0 27-22 94-31 94-5 0-16-16-24-36zm-809-1-17-53 6-10 6-10h62l-6 29c-3 16-12 44-20 62l-14 34-17-52z"/></g><g fill="#a3652e" transform="matrix(.1 0 0 -.1 0 300)"><path d="M10 1495V0h2990v2990H10V1495zm1710 1244c41-6 89-18 107-25 17-8 36-14 42-14 37 0 271-105 271-122 0-4 7-8 15-8 18 0 177-132 234-196 93-103 220-304 224-353 1-12 4-21 8-21 14 0 54-138 74-261l13-77-2-123c-2-68-6-144-10-169-11-68-47-214-56-225-4-5-19-41-34-80-15-38-32-75-37-81s-20-31-32-55c-28-53-84-130-153-213l-50-61-95-77-94-78-95-48c-104-52-223-101-312-126l-58-17-132-2c-160-2-229 5-345 39-244 70-446 207-623 422l-77 92-45 88-46 87-35 110c-19 61-41 144-48 185l-14 75 1 140v140l18 90c32 168 109 344 214 495 58 84 193 217 274 271 65 44 254 139 276 139 6 0 12 4 12 8 0 13 97 40 185 51 44 6 94 13 110 15 47 7 233-2 315-15zm-300-19c-36-4-73-11-82-15-10-4-37-8-60-10-24-1-74-10-113-19l-70-17-104-49c-113-55-173-94-269-179l-63-55-36-56c-20-30-46-66-57-80-25-31-104-189-141-280l-25-65-26-125-26-125 6-27 5-27-8-5c-11-7-13-77-2-90 5-6 11-52 14-102l6-91 20-76c33-121 87-248 137-322 13-20 24-39 24-42 0-24 238-265 304-309 28-18 62-42 76-53s29-21 34-21c4 0 30-11 58-25 69-35 179-71 273-91l80-16h270l76 15 77 16 106 44c58 25 106 43 106 40s15 6 34 21c19 14 39 26 44 26 6 0 46 26 89 58 88 66 215 192 255 255 15 23 38 56 52 73 14 18 26 36 26 42 0 11 18 46 42 82 25 37 86 232 103 329l15 84v232l-15 79c-35 180-95 336-184 471l-45 70-101 101-100 101-74 48c-175 112-375 177-576 188l-90 5-65-8zm354-218 40-27 13-50 13-50-6-39-6-40-35-50c-20-28-45-62-57-75-25-28-133-115-198-159-90-61-288-264-288-295 0-2 15-10 33-17 29-11 105-47 165-78 12-7 32-17 44-24 68-34 197-48 269-28l36 10 47 41 47 41 21 42 22 41v60l1 60-19 38-18 37-30 22-30 21-44 5-44 5-30-13-31-13-14-27-14-27 3-46 3-46 13-16 14-17 33 5 33 6v-13c0-8-7-19-15-26l-14-12-35 12-34 11-16 24-16 25-6 42-5 43 23 40 23 39 35 23c19 12 40 26 45 30 6 5 26 9 46 11l37 3 56-16 56-16 36-44 36-44 13-59 14-59-7-24c-4-13-22-52-40-86l-32-62-42-42-43-41-65-31-65-31-66-4-67-4-53 11-54 11-156 76-156 76-29-27c-40-38-91-62-147-70l-47-7-30 12-30 13-6 23-6 24 11 28 12 28 50 38c27 20 57 40 65 43l16 6 7-10 6-10 57-6 57-5 14 21c20 32 64 146 86 225 58 202 75 253 108 317 63 126 135 195 231 221l47 13 35-5 35-5 39-27zm-305-1111 13-9-15-8-15-9-17-45c-9-25-19-55-22-67-3-13-9-23-14-23s-9-7-9-16-10-38-22-65l-23-49h-22l-18 43c-11 23-33 74-51 112-17 39-34 80-38 91l-6 21-23 11-22 11h68c37 1 67-1 67-4s-5-14-12-24l-11-19 22-48c13-26 25-63 28-81s9-33 13-33c8 0 70 158 70 178 0 7-4 12-10 12-5 0-10 7-10 15v15h33c17 0 38-4 46-9zm129-2h37l-21-11-22-10 31-49c16-27 33-49 38-49 11 0 49 64 49 83 0 8-6 17-12 20l-13 5 12 12 11 12 49-7 48-8-31-13-31-13-17-38c-9-21-25-54-36-73-22-38-25-71-10-101l11-19h29v-30h-129l-5 9-6 9 20 5 20 5v97l-40 71-39 72-18 6-17 7 14 9c8 6 21 8 28 5 8-3 30-5 50-6zm358-89c37-104 49-131 76-172l18-27-17-4c-15-4-95-2-113 2-3 1 4 8 14 16l19 15-11 39-12 39-43-5-42-5-12-16c-7-9-13-26-13-38v-22l16-6 15-6-6-10-6-10h-78l-6 11-7 10 14 12c25 21 51 70 79 147 14 41 32 88 40 103l13 28 14-3 14-3 34-95zm294 79 12-21-6-15-7-16-22 22-23 21h-64v-50l19-17c10-10 37-31 60-46l41-28 6-25 7-25-11-24c-15-32-48-53-97-60l-40-6-18 13-17 13-7 38-6 37h25l5-20 5-20 32-8 31-9 20 7 20 7 3 21 3 21-56 37-56 38-15 27-14 28 7 18c3 10 15 28 26 41l20 22h106l11-21zm-1437-1-23-11v-213l12-12 12-12h55l16 31c21 40 29 31 20-20l-7-41H710v9c0 5 7 11 15 15l15 5v224l-17 19-16 18 64-1h64l-22-11zm291 6 16-6v-18c0-10 7-31 15-47 8-15 26-61 41-101s33-77 40-83l13-10-5-13-5-12-46 2-46 3-11 11-10 10h34v18c0 10-7 28-16 40l-15 22h-77l-13-31-13-32 17-12c27-20 20-25-33-25h-50v10c0 6 4 10 9 10 13 0 51 67 51 90 0 10 4 21 9 24 4 3 19 34 31 68 21 57 37 88 45 88 2 0 10-3 19-6zm193-391 21-17-18-15-18-16 7-93 6-93 25-19c33-25 43-25 77 4l28 24v186l-23 12-24 12 9 4c4 3 31 2 58-1l50-6-17-7-18-7V774l-34-37-34-37h-88l-23 16-23 17-15 34-14 35v157l-17 11-17 10 19 15c26 20 57 19 83-2zm301 5 13-13 8 13 8 13 16-7c9-3 17-10 17-15s9-9 19-9c26 0 59-30 66-61l6-26-36-31-36-32 11-13c6-6 24-31 40-54l30-43h48l15 23c8 13 29 63 46 110 17 48 38 101 46 118l16 30 14-11c8-6 26-44 41-83 48-130 57-152 76-173 23-26 23-30-4-39-34-10-68-12-68-3 0 4-7 8-15 8-17 0-20 17-4 22l12 4-8 33-7 32-26 10-26 10-21-5-22-6-11-25c-7-14-12-32-12-40v-15h15c8 0 15-4 15-10v-10h-60v-24l-12 12c-7 7-23 12-35 12-13 0-37 7-52 15l-29 14-28 46c-31 49-44 57-64 45l-13-8 7-36 7-36 19-13c11-6 20-15 20-19v-8h-110v9c0 5 5 11 10 13l11 3 2 117 2 117-20 15-20 15 23 1h22v10c0 14 24 12 38-2zm-483-93c9-36 33-96 51-133 19-37 34-68 34-68 0-1-10-2-22-2-13 0-27-1-33-2-5-1-23-2-39-1l-30 1 18 13 18 13-7 36-7 37-29 6-30 7-24-16-25-16-6-26-6-25 18-14 19-14-54-1h-53l31 35c17 20 31 41 31 48s7 26 16 42c9 17 25 55 36 85s25 61 30 67l10 13 17-10 18-9 18-66zm477 1560-39-35-31-57c-16-32-32-67-34-78-1-11-6-22-10-25s-19-48-33-100-30-109-35-126c-6-17-10-40-10-51v-21l-11-4-12-4 4-12 4-11 40 35c22 19 74 59 115 89 41 29 105 83 142 119l66 65 21 56c25 66 26 84 7 129l-14 33-23 17-23 16h-86l-38-35zm-619-781-33-14v-58l13-10c6-6 24-13 40-17l27-7v24l13-5c18-6 62 19 87 50l22 28-29 12c-15 7-46 12-68 12l-40-1-32-14zm898-395c-6-18-11-40-11-50v-19h30c34 0 33-3 19 56-13 52-23 55-38 13zm-806 18c-4-13-8-32-9-43l-3-19 19-14 20-13 9 9 9 9-16 47c-9 26-18 47-20 47s-6-10-9-23zm547-389 3-53 27-3 28-3 11 24 11 24-16 32-17 31h-50l3-52zm286-40c-10-23-17-43-15-44 2-2 14-5 28-6l24-3-1 13c-1 6-2 28-2 47-2 46-13 44-34-7zm-861 13c-29-49-18-75 25-63l18 4-7 27c-3 14-9 34-12 44l-7 17-17-29z"/></g><g fill="#5d3918" transform="matrix(.1 0 0 -.1 0 300)"><path d="M10 1495V0h2990v2990H10V1495zm1670 1255c14-5 45-12 70-15 25-4 77-16 115-27 79-23 285-117 285-130 0-4 6-8 13-8 21 0 195-152 250-218 68-81 134-183 185-285l43-89 24-91c12-51 28-124 35-164l12-72-7-11-7-11 12-14 12-15-6-62c-3-35-8-81-10-103-7-82-29-193-55-280l-28-90-48-95-47-94-61-81c-81-105-169-197-231-241-28-19-69-48-91-65-22-16-78-49-125-73l-86-44-99-30c-124-38-175-45-334-44-193 1-277 17-426 80-102 43-180 87-262 149-71 53-183 154-183 164 0 3-21 28-47 55-27 28-55 64-63 80s-24 43-36 59c-61 84-129 259-159 410l-16 80-4 110-5 110 11 90c22 196 102 417 194 540 17 22 42 58 57 80 45 66 195 215 217 215 5 0 11 4 13 8 11 28 174 117 298 162l85 32 85 15c47 8 110 17 140 20 30 2 56 5 57 7 6 6 201-6 223-14zm-345-51c-16-5-35-7-42-4-7 2-15 0-18-5-4-6-16-10-28-10-11 0-59-12-106-26l-86-26-115-61-115-61-105-103-105-102-41-63c-133-206-206-414-219-624l-5-79 11-110c5-60 14-128 20-150 70-272 171-448 353-615 27-25 57-52 66-60 36-36 180-122 255-153 178-76 278-96 465-98h95l88 16 89 15 111 46c62 25 117 50 122 54 6 4 33 20 60 35 75 42 173 124 258 217 97 107 132 156 188 268 24 48 70 177 90 250l22 85 12 130 11 130-7 10c-3 6-9 42-13 80-12 126-16 141-56 253l-39 111-46 83c-67 120-118 185-223 282l-92 85-68 40c-121 71-296 135-436 160l-60 11-130-1-131-1-30-9zm440-183 26-17 18-42 18-42-2-50c-1-27-7-69-14-93l-12-43-73-72c-40-40-115-103-168-140l-95-68-74-77c-85-88-129-140-129-152 0-8 34-26 227-117l53-24 65-11 66-11 52 12 52 12 47 42 47 42 25 54 24 53-4 51-5 51-25 33c-14 18-38 40-54 48l-29 15h-83l-29-29-29-29v-89l19-17 19-18 19 11 19 10 15-9 14-9-11-18-11-18-32-6-33-7-34 30-34 30v23c0 13-5 27-11 31l-11 6 11 11c6 6 11 23 11 38v26l23 33 22 34 45 23 45 24 67-5 66-5 29-15c16-8 46-34 66-57l37-42v-57h20v-89l-16-38c-36-85-51-109-95-152l-45-46-45-22c-24-12-70-28-103-36l-58-15-52 5c-49 4-132 28-206 60-33 14-49 22-162 79-27 13-53 24-59 24s-29-16-52-35l-40-35-46-13-46-14-9 8-8 7-32-5-31-5-22 22-23 21v65l34 41 35 40 46 17 46 18 65-12c36-7 66-11 67-9 4 6 45 123 79 224 17 50 34 98 39 107 5 10 9 30 9 45 0 16 13 63 29 106 65 174 171 284 294 306l42 7 37-7c20-3 49-14 63-23zm481-1131c17-17 18-29 2-54l-12-20-29 25-29 24h-39l3-27 3-27 52-36 53-35 11-32 10-32-13-28-13-28-35-18-35-18-38 5-39 4-19 18-19 17v77h30l9-24c10-25 30-36 66-36h23l12 15c7 9 11 17 9 19s-30 19-61 39l-57 36-16 30c-21 42-19 55 13 89 32 35 53 42 105 36l39-5 14-14zm-1441-15-15-17v-211l16-6 15-6 18 9c9 5 23 21 31 35l13 26h27v-16c0-9-5-34-12-55l-11-39-16-1c-9-1-51-2-93-3l-78-1-5 14-5 14 13 16c7 9 13 25 12 36s-2 59-3 107l-2 87-15 15-15 15 57 3c32 2 64 1 71-1l13-3-16-18zm300 10c10-11 15-20 10-20-4 0 0-11 9-25 9-13 16-30 16-37 0-22 62-168 71-168 5 0 9-9 9-20v-20h-109l-7 11-7 11 13 8 12 8-9 28-10 29-36 3-37 3-12-25-11-26 15-17 16-18-11-10-12-10-36 1c-20 0-41 4-48 9l-13 7 20 22c11 11 34 57 52 101s36 88 41 97c5 10 9 24 9 32 0 15 26 46 39 46 4 0 16-9 26-20zm511 9 6-11-10-10-11-11 20-38c23-45 31-48 48-16l13 24-4 34-3 34 44 3c24 2 50 1 58-2l14-6-33-35c-18-20-45-60-60-88l-28-52v-30c0-35 8-49 34-59l20-7-15-14-14-14-58-2-59-2-8 13c-11 17-4 30 16 30h15l-6 20-6 20h10c18 0 13 24-16 76-14 27-32 61-39 75-8 14-23 34-33 43l-19 18-21-11-21-12-24-52c-13-28-36-86-51-127s-32-81-38-88l-10-13-18 17-18 16-47 119-47 118-18 6-19 6v29h143l-18-20-18-20 16-33c9-17 23-49 32-70l15-38 10 6c5 3 10 11 10 18 0 6 10 35 22 64l21 53-16 18c-9 10-17 21-17 25 0 3 56 6 125 6h124l7-10zm344-115c25-66 53-131 62-144l18-24-8-7c-4-4-28-9-54-12l-48-5-11 14-11 14 12 15 13 16-11 24-12 25h-60l-16-26-17-25 12-12c6-6 11-17 11-24v-13h-110v8c0 5 9 17 20 27l20 18 19 52c11 29 34 87 52 130l32 76 21-3 20-3 46-121zm-665-281 17-17-15-11-15-11v-88l1-88 24-29c14-16 28-29 33-29 4 0 22 13 39 29l31 29v161l-24 19-25 19 11 11 11 11 19-10 19-10 29 6 28 6 6-9 6-9-21-19-21-19 7-67 7-67-12-35-11-34-34-26-34-26-33 2c-45 2-84 23-105 55l-17 26 1 83 2 82-20 27-21 26 12 14 12 15h77l16-17zm377-7 37-16 15-22c22-31 20-49-9-93l-26-37 26-45c15-24 34-47 42-50l16-6 22 25 21 25 33 99 33 99 20 19 20 19 18-19c10-11 37-68 60-129 23-60 49-118 57-128l16-17-19-15-19-14-27 1c-16 1-28 6-28 10s-12 8-27 8h-26l16 18 15 17-5 28-6 28-36-3-36-3-12-25-12-24 15-17 15-16-41-11-40-10-5 9-6 8-25-9-25-10-30 16-31 15-30 50c-17 27-34 49-38 49-24 0-18-68 7-83 7-4 13-14 13-22v-13l-27 3-28 3-7-11-6-10-31 13c-36 15-38 21-11 38l20 12v196l-16 22-16 23 5 13 5 14 59-3 58-3 37-16zm-567-75c9-31 32-89 51-129s34-77 34-83v-10l-20 6-21 7-14-12-13-11-7 11-6 10h-27l-27 1 20 11c11 6 21 12 23 14 2 1-4 16-13 33l-16 31h-59l-16-25-16-25 12-15 13-15-6-7c-6-5-59-7-99-3l-13 1 25 22 26 22 21 50c11 28 31 77 43 110 13 33 29 68 37 77l15 16 19-16 18-16 16-55zm539 1572c-12-2-39-19-61-38l-39-33-43-88-43-87-29-115c-16-62-31-118-35-123l-5-9h10c6 0 39 21 74 48 35 26 86 63 115 82l51 35 1 13c0 6 4 12 9 12 14 0 101 116 101 134 0 8 5 18 10 21 22 14-1 107-32 132-17 13-57 21-84 16zm-659-792c-12-5-27-16-34-24l-13-16 4-22 3-22 17-11 17-10 38 13c21 8 53 25 71 39l33 25-14 15-15 14-43 4-44 4-20-9zm65-431v-21l15-6c9-3 18-3 21 0 8 7-15 47-26 47h-10v-20zm813 4-6-16 14-9c8-5 18-9 23-9h8l-6 16c-3 9-6 20-6 25 0 15-20 10-27-7zm-263-348v-34l16-13 16-13 19 23c11 13 19 27 19 31 0 16-31 40-51 40h-19v-34zm290-61v-25h20c11 0 20 3 20 6 0 13-21 44-30 44h-10v-25zm-863 11c-4-10-7-22-7-27v-9h20c23 0 25 9 7 34l-14 19-6-17z"/></g><g fill="#080402" transform="matrix(.1 0 0 -.1 0 300)"><path d="M10 1495V0h2990v2990H10V1495zm1682 1254c18-5 45-9 60-9 37 0 226-64 302-102 34-16 92-51 131-76l70-47 90-90 91-90 58-84c87-125 176-313 176-371 0-15 4-30 9-35 11-11 15-36 32-189l11-99-6-46c-3-25-6-62-5-80 0-45-37-215-66-307-13-39-42-108-65-155l-42-84-68-90c-69-94-216-245-236-245-6 0-18-7-25-16-42-51-212-143-353-191-125-42-161-47-376-46h-175l-65 18c-119 32-306 114-369 162-9 7-44 32-77 58-80 59-189 168-255 255-45 60-51 69-108 180l-49 96-26 84c-14 47-34 137-45 200l-21 115 4 75c6 121 25 248 52 350l26 95 51 105c28 58 55 110 60 115 4 6 33 44 64 84 144 195 326 329 553 408l85 30 95 16c52 9 113 19 135 21 58 6 239-4 277-15zm-312-49c-76-9-142-22-225-44l-60-16-124-62-125-63-66-58c-69-59-194-198-220-245-8-15-18-29-21-32-13-10-80-153-108-230-31-85-65-230-63-267 1-13-2-23-6-23h-7l1-107c2-138 9-197 40-313 14-52 27-107 31-122 3-16 9-28 14-28s9-7 9-14c0-20 67-147 114-219l39-58 104-105 104-104 68-45c74-49 251-135 276-135 9 0 25-4 35-10 10-5 52-17 92-26l73-16 130-3 130-3 77 14c111 19 262 75 346 128 23 14 45 26 48 26 11 0 111 77 172 133 118 106 249 284 288 389 31 87 63 185 79 248l17 65 7 120 7 120-6 10c-4 6-8 33-9 60-8 187-91 406-227 601l-41 59-102 92-102 92-107 54c-59 30-132 62-162 72l-93 31c-20 8-74 20-120 28l-82 15-80-1c-44-1-109-4-145-8zm364-164c18-8 45-26 59-41l25-28-5-12-4-13 10-7 11-6-1-62-1-62-12-35-12-35-65-71c-35-39-77-79-94-89-61-37-182-134-245-196-69-68-145-157-139-163 16-13 262-126 294-135l40-11h140l35 21c54 33 89 70 116 121l24 47v45c0 58-11 86-49 123l-31 31-40 7-41 7-30-12-30-13-12-26c-15-31-15-78 0-105l10-19 32 6 32 7 6-16 5-15-17-19-18-20h-63l-28 28-27 29-10 37-10 36 8 13c7 12 9 17 11 49 1 10 16 33 33 53l32 36 35 14 34 15h52c28 0 69-5 91-11l40-11 38-41 38-41 5-26c3-14 9-33 15-42 5-10 9-40 9-67v-50l-10-6c-5-3-10-13-10-22 0-50-78-149-157-200l-52-33-63-16-63-16-65 4-65 5-55 23c-101 41-125 52-165 72-22 11-61 31-87 44-52 26-68 29-68 14 0-13-79-64-120-77-19-6-53-10-75-9l-40 1-21 15c-11 8-26 26-33 38l-13 24 13 31 13 31 35 31c19 16 48 36 65 43l31 14 50-6c28-3 60-9 72-12l23-6 4 13c3 8 25 73 49 144 25 72 49 148 55 170 22 88 56 192 75 230 21 43 95 148 109 153 5 2 16 11 24 20 39 38 117 70 177 71l38 1 33-14zm-116-1141 13-5-11-20-11-20 17-35c20-43 28-44 44-5l13 31-11 24-11 23 14 12 14 12 51-7c27-4 50-10 50-13s-13-20-29-37c-16-16-41-52-55-79l-26-49v-89l20-5 20-5v-14c0-21-30-31-89-30l-54 2-11 17-11 18 13 8c7 4 19 20 27 34l14 27-44 79c-25 43-52 84-61 92l-16 13-16-11c-25-15-71-112-107-220-19-60-27-68-54-54l-19 11-27 72c-42 113-67 161-95 185l-25 23 13 8 14 9 61-1 61-2 4-12 4-12h-22v-20c0-11 4-28 10-38 5-9 16-35 25-56 8-22 17-37 19-35s15 31 29 64l25 60-20 22-21 22 14 5c33 12 223 12 257 1zm288 7c6-4 28-52 48-107s40-107 43-115 6-18 5-21c-1-4 8-15 18-24 23-20 26-44 8-47-38-4-85-5-101-1l-18 5 5 36 6 37-8 13-9 14-28-4-28-3-11-17-11-18 12-18 11-18-10-17-9-17h-90l-6 17-6 16 20 17 21 17 15 44c25 71 76 191 88 206 13 15 19 16 35 5zm337-6 17-13v-19c-1-10-6-29-13-42l-13-22-22 25-22 25h-50v-38l57-39 58-40 9-31 9-31-13-31-13-31-44-21-44-21-40 12-39 12-16 23-15 24 8 32c10 40 24 42 41 8l13-27 34-7 34-6 15 14 14 15-39 24c-48 29-62 41-94 84l-25 32 9 25c5 14 24 37 41 51l32 27h46l47-1 18-13zm-1427-8 6-9-16-18-16-18v-203h55l23 35c25 39 39 44 44 18 5-24-13-96-25-105-6-3-51-5-101-4l-91 2-3 16-3 16 10 7 11 6v218l-15 15c-8 8-15 17-15 20 0 8 33 13 83 13h47l6-9zm294-8c14-28 28-65 33-85 11-42 43-123 60-148 9-14 17-33 17-42v-15l-27-1c-29-2-72-2-86 0l-9 1 7 30 6 30-6 20-6 20h-59l-17-26-17-26 17-13 17-12-6-17-6-16h-47c-25 0-52 4-59 9l-13 8 23 29c21 26 64 118 99 214 7 19 17 41 22 48l10 13 20-3c11-2 23-10 27-18zm189-387 10-18-12-15-12-15 3-92 3-92 26-16 25-17 24 12c30 17 35 30 39 118l4 73-24 20-23 21 5 13 5 13 56-5c31-3 59-7 61-9s-3-12-11-21l-16-18-4-97-3-98-37-36-36-37h-79l-30 18c-16 9-36 27-43 39l-14 21 2 52 3 51-11 7-11 7 12 14 11 14-12 30c-7 17-20 34-28 39l-16 9 13 16 13 16h97l10-17zm382-10 46-22 7-16c11-29 6-59-14-93l-21-34 6-19c8-23 53-79 65-79 15 0 43 54 74 145l31 91 23 29 24 30 18-23c10-12 37-71 60-129 22-58 50-119 61-135l20-28-28-11-28-10-47 6-48 7v8c0 5 5 12 10 15l10 6v60l-15 5c-8 4-26 3-39 0l-25-6-6-21-7-20 13-15 12-15-11-11-12-12-57-2-58-3-32 10-32 10-33 50-32 49-10-3-11-4 3-24 3-23 21-23c12-13 19-26 15-29-8-9-86-13-114-7l-23 5v14c0 7 8 17 18 23l17 10 4 85 3 86-19 37-20 38 4 13 5 12 61-2 62-2 46-23zm-609 3c18-13 48-85 48-115 0-9 18-51 40-95 23-43 39-80 37-83-2-2-30-4-61-5l-56-2-12 12-11 11 21 8 22 8-20 33-20 32h-13c-7 0-23-7-35-16l-22-15v-19c0-10 5-22 10-25 6-4 8-10 5-15l-5-9-50 1h-50l-6 10-6 10 21 15 22 15 25 55c13 31 24 61 24 68 0 15 39 105 52 123 13 15 18 15 40-2zm520 1462-40-33-23-45c-13-25-27-46-31-48-5-2-8-14-8-26s-5-27-11-33c-5-5-17-34-25-64-22-76-44-160-51-187l-6-24 45 34c25 18 78 57 119 87l74 54 43 51c24 28 55 74 69 102l26 51-18 47-18 48-24 9c-14 5-37 9-53 9h-28l-40-32zm-600-759c-13-5-30-16-39-24l-15-16 6-23 6-24 22-5 23-6 9 9c6 6 17 10 25 10 21 0 81 42 81 57v12l-37 10c-45 13-51 13-81 0zm874-424c-9-23-8-25 9-25s19 9 6 28l-8 14-7-17zm-810-1-7-17 13-8 13-8 3 9c2 5-1 17-6 26l-9 16-7-18zm556-356 3-43h30l10 28 10 29-20 14c-10 8-23 14-27 14h-9l3-42zm284-43c-10-26-7-35 9-35h15v13c0 6-4 18-9 25l-8 14-7-17zm-866-14v-21h10c6 0 10 6 10 14s-4 18-10 21l-10 6v-20z"/></g></g></svg>